<mxfile host="app.diagrams.net" modified="2024-07-11T16:38:00.030Z" agent="Mozilla/5.0 (Windows NT 10.0; Win64; x64) AppleWebKit/537.36 (KHTML, like Gecko) Chrome/126.0.0.0 Safari/537.36 Edg/126.0.0.0" etag="ZPbgKUZOfoe0nGbIzqna" version="24.6.4" type="device">
  <diagram id="R2lEEEUBdFMjLlhIrx00" name="Page-1">
    <mxGraphModel dx="364" dy="815" grid="1" gridSize="10" guides="1" tooltips="1" connect="1" arrows="1" fold="1" page="1" pageScale="1" pageWidth="850" pageHeight="1100" math="0" shadow="0" extFonts="Permanent Marker^https://fonts.googleapis.com/css?family=Permanent+Marker">
      <root>
        <mxCell id="0" />
        <mxCell id="1" parent="0" />
        <mxCell id="h8sqUMdlJHkXFkki7X1s-1" value="Hospital" style="whiteSpace=wrap;html=1;align=center;" parent="1" vertex="1">
          <mxGeometry x="170" y="200" width="100" height="40" as="geometry" />
        </mxCell>
        <mxCell id="h8sqUMdlJHkXFkki7X1s-3" value="Patient" style="whiteSpace=wrap;html=1;align=center;" parent="1" vertex="1">
          <mxGeometry x="500" y="460" width="100" height="40" as="geometry" />
        </mxCell>
        <mxCell id="h8sqUMdlJHkXFkki7X1s-4" value="Doctor" style="whiteSpace=wrap;html=1;align=center;" parent="1" vertex="1">
          <mxGeometry x="500" y="200" width="100" height="40" as="geometry" />
        </mxCell>
        <mxCell id="h8sqUMdlJHkXFkki7X1s-6" value="Employ" style="shape=rhombus;perimeter=rhombusPerimeter;whiteSpace=wrap;html=1;align=center;" parent="1" vertex="1">
          <mxGeometry x="310" y="190" width="120" height="60" as="geometry" />
        </mxCell>
        <mxCell id="h8sqUMdlJHkXFkki7X1s-7" value="Treatment" style="shape=ext;margin=3;double=1;whiteSpace=wrap;html=1;align=center;" parent="1" vertex="1">
          <mxGeometry x="170" y="330" width="100" height="40" as="geometry" />
        </mxCell>
        <mxCell id="h8sqUMdlJHkXFkki7X1s-9" value="Doctor code" style="ellipse;whiteSpace=wrap;html=1;align=center;fontStyle=4;" parent="1" vertex="1">
          <mxGeometry x="630" y="90" width="100" height="40" as="geometry" />
        </mxCell>
        <mxCell id="h8sqUMdlJHkXFkki7X1s-12" value="Patient code" style="ellipse;whiteSpace=wrap;html=1;align=center;fontStyle=4;" parent="1" vertex="1">
          <mxGeometry x="450" y="540" width="100" height="40" as="geometry" />
        </mxCell>
        <mxCell id="h8sqUMdlJHkXFkki7X1s-17" value="" style="edgeStyle=entityRelationEdgeStyle;fontSize=12;html=1;endArrow=ERoneToMany;rounded=0;exitX=1;exitY=0.5;exitDx=0;exitDy=0;entryX=0;entryY=0.5;entryDx=0;entryDy=0;" parent="1" source="h8sqUMdlJHkXFkki7X1s-6" target="h8sqUMdlJHkXFkki7X1s-4" edge="1">
          <mxGeometry width="100" height="100" relative="1" as="geometry">
            <mxPoint x="540" y="300" as="sourcePoint" />
            <mxPoint x="640" y="200" as="targetPoint" />
          </mxGeometry>
        </mxCell>
        <mxCell id="h8sqUMdlJHkXFkki7X1s-18" value="" style="endArrow=none;html=1;rounded=0;exitX=0.75;exitY=0;exitDx=0;exitDy=0;entryX=0;entryY=0.5;entryDx=0;entryDy=0;" parent="1" source="h8sqUMdlJHkXFkki7X1s-4" target="h8sqUMdlJHkXFkki7X1s-9" edge="1">
          <mxGeometry relative="1" as="geometry">
            <mxPoint x="670" y="190" as="sourcePoint" />
            <mxPoint x="830" y="190" as="targetPoint" />
          </mxGeometry>
        </mxCell>
        <mxCell id="h8sqUMdlJHkXFkki7X1s-19" value="Admit" style="shape=rhombus;perimeter=rhombusPerimeter;whiteSpace=wrap;html=1;align=center;" parent="1" vertex="1">
          <mxGeometry x="640" y="320" width="120" height="60" as="geometry" />
        </mxCell>
        <mxCell id="h8sqUMdlJHkXFkki7X1s-21" value="" style="endArrow=none;html=1;rounded=0;exitX=0.5;exitY=1;exitDx=0;exitDy=0;entryX=0.5;entryY=0;entryDx=0;entryDy=0;" parent="1" source="h8sqUMdlJHkXFkki7X1s-3" target="h8sqUMdlJHkXFkki7X1s-12" edge="1">
          <mxGeometry relative="1" as="geometry">
            <mxPoint x="600" y="480" as="sourcePoint" />
            <mxPoint x="760" y="480" as="targetPoint" />
          </mxGeometry>
        </mxCell>
        <mxCell id="h8sqUMdlJHkXFkki7X1s-22" value="Patient name" style="ellipse;whiteSpace=wrap;html=1;align=center;" parent="1" vertex="1">
          <mxGeometry x="560" y="540" width="100" height="40" as="geometry" />
        </mxCell>
        <mxCell id="h8sqUMdlJHkXFkki7X1s-23" value="" style="endArrow=none;html=1;rounded=0;exitX=0.5;exitY=1;exitDx=0;exitDy=0;entryX=0.5;entryY=0;entryDx=0;entryDy=0;" parent="1" source="h8sqUMdlJHkXFkki7X1s-3" target="h8sqUMdlJHkXFkki7X1s-22" edge="1">
          <mxGeometry relative="1" as="geometry">
            <mxPoint x="670" y="470" as="sourcePoint" />
            <mxPoint x="830" y="470" as="targetPoint" />
          </mxGeometry>
        </mxCell>
        <mxCell id="h8sqUMdlJHkXFkki7X1s-25" value="Doctor name" style="ellipse;whiteSpace=wrap;html=1;align=center;" parent="1" vertex="1">
          <mxGeometry x="670" y="140" width="100" height="40" as="geometry" />
        </mxCell>
        <mxCell id="h8sqUMdlJHkXFkki7X1s-26" value="" style="endArrow=none;html=1;rounded=0;exitX=1;exitY=0.5;exitDx=0;exitDy=0;entryX=0;entryY=0.5;entryDx=0;entryDy=0;" parent="1" source="h8sqUMdlJHkXFkki7X1s-4" target="h8sqUMdlJHkXFkki7X1s-25" edge="1">
          <mxGeometry relative="1" as="geometry">
            <mxPoint x="680" y="210" as="sourcePoint" />
            <mxPoint x="840" y="210" as="targetPoint" />
            <Array as="points">
              <mxPoint x="600" y="210" />
            </Array>
          </mxGeometry>
        </mxCell>
        <mxCell id="h8sqUMdlJHkXFkki7X1s-27" value="Date of employment" style="ellipse;whiteSpace=wrap;html=1;align=center;" parent="1" vertex="1">
          <mxGeometry x="700" y="190" width="100" height="40" as="geometry" />
        </mxCell>
        <mxCell id="h8sqUMdlJHkXFkki7X1s-28" value="" style="endArrow=none;html=1;rounded=0;exitX=1;exitY=0.75;exitDx=0;exitDy=0;entryX=0;entryY=0.5;entryDx=0;entryDy=0;exitPerimeter=0;" parent="1" source="h8sqUMdlJHkXFkki7X1s-4" target="h8sqUMdlJHkXFkki7X1s-27" edge="1">
          <mxGeometry relative="1" as="geometry">
            <mxPoint x="680" y="230" as="sourcePoint" />
            <mxPoint x="740" y="260" as="targetPoint" />
          </mxGeometry>
        </mxCell>
        <mxCell id="h8sqUMdlJHkXFkki7X1s-29" value="" style="endArrow=none;html=1;rounded=0;exitX=0.5;exitY=1;exitDx=0;exitDy=0;" parent="1" source="h8sqUMdlJHkXFkki7X1s-30" edge="1">
          <mxGeometry relative="1" as="geometry">
            <mxPoint x="600" y="160" as="sourcePoint" />
            <mxPoint x="560" y="200" as="targetPoint" />
          </mxGeometry>
        </mxCell>
        <mxCell id="h8sqUMdlJHkXFkki7X1s-30" value="Specialty" style="ellipse;whiteSpace=wrap;html=1;align=center;" parent="1" vertex="1">
          <mxGeometry x="520" y="80" width="100" height="40" as="geometry" />
        </mxCell>
        <mxCell id="h8sqUMdlJHkXFkki7X1s-34" value="" style="fontSize=12;html=1;endArrow=ERoneToMany;rounded=0;exitX=0.5;exitY=1;exitDx=0;exitDy=0;entryX=0.75;entryY=0;entryDx=0;entryDy=0;" parent="1" source="h8sqUMdlJHkXFkki7X1s-19" target="h8sqUMdlJHkXFkki7X1s-3" edge="1">
          <mxGeometry width="100" height="100" relative="1" as="geometry">
            <mxPoint x="650" y="450" as="sourcePoint" />
            <mxPoint x="640" y="410" as="targetPoint" />
          </mxGeometry>
        </mxCell>
        <mxCell id="h8sqUMdlJHkXFkki7X1s-35" value="Admitted" style="shape=rhombus;perimeter=rhombusPerimeter;whiteSpace=wrap;html=1;align=center;" parent="1" vertex="1">
          <mxGeometry x="490" y="320" width="120" height="60" as="geometry" />
        </mxCell>
        <mxCell id="h8sqUMdlJHkXFkki7X1s-40" value="" style="fontSize=12;html=1;endArrow=ERmandOne;rounded=0;exitX=0.5;exitY=0;exitDx=0;exitDy=0;entryX=0.5;entryY=1;entryDx=0;entryDy=0;" parent="1" source="h8sqUMdlJHkXFkki7X1s-35" target="h8sqUMdlJHkXFkki7X1s-4" edge="1">
          <mxGeometry width="100" height="100" relative="1" as="geometry">
            <mxPoint x="470" y="340" as="sourcePoint" />
            <mxPoint x="560" y="250" as="targetPoint" />
          </mxGeometry>
        </mxCell>
        <mxCell id="h8sqUMdlJHkXFkki7X1s-41" value="" style="fontSize=12;html=1;endArrow=ERmandOne;rounded=0;exitX=0.5;exitY=1;exitDx=0;exitDy=0;entryX=0.5;entryY=0;entryDx=0;entryDy=0;" parent="1" source="h8sqUMdlJHkXFkki7X1s-35" target="h8sqUMdlJHkXFkki7X1s-3" edge="1">
          <mxGeometry width="100" height="100" relative="1" as="geometry">
            <mxPoint x="460" y="430" as="sourcePoint" />
            <mxPoint x="560" y="330" as="targetPoint" />
          </mxGeometry>
        </mxCell>
        <mxCell id="h8sqUMdlJHkXFkki7X1s-43" value="Treat" style="shape=rhombus;perimeter=rhombusPerimeter;whiteSpace=wrap;html=1;align=center;" parent="1" vertex="1">
          <mxGeometry x="350" y="320" width="120" height="60" as="geometry" />
        </mxCell>
        <mxCell id="h8sqUMdlJHkXFkki7X1s-50" value="" style="fontSize=12;html=1;endArrow=ERmany;rounded=0;exitX=0.5;exitY=0;exitDx=0;exitDy=0;entryX=0.25;entryY=1;entryDx=0;entryDy=0;" parent="1" source="h8sqUMdlJHkXFkki7X1s-43" target="h8sqUMdlJHkXFkki7X1s-4" edge="1">
          <mxGeometry width="100" height="100" relative="1" as="geometry">
            <mxPoint x="430" y="400" as="sourcePoint" />
            <mxPoint x="530" y="300" as="targetPoint" />
          </mxGeometry>
        </mxCell>
        <mxCell id="h8sqUMdlJHkXFkki7X1s-51" value="" style="fontSize=12;html=1;endArrow=ERmany;rounded=0;exitX=0.5;exitY=1;exitDx=0;exitDy=0;entryX=0.25;entryY=0;entryDx=0;entryDy=0;" parent="1" source="h8sqUMdlJHkXFkki7X1s-43" target="h8sqUMdlJHkXFkki7X1s-3" edge="1">
          <mxGeometry width="100" height="100" relative="1" as="geometry">
            <mxPoint x="560" y="400" as="sourcePoint" />
            <mxPoint x="560" y="320" as="targetPoint" />
          </mxGeometry>
        </mxCell>
        <mxCell id="h8sqUMdlJHkXFkki7X1s-52" value="" style="endArrow=none;html=1;rounded=0;entryX=0;entryY=0.5;entryDx=0;entryDy=0;exitX=1;exitY=0.5;exitDx=0;exitDy=0;" parent="1" source="h8sqUMdlJHkXFkki7X1s-1" target="h8sqUMdlJHkXFkki7X1s-6" edge="1">
          <mxGeometry relative="1" as="geometry">
            <mxPoint x="230" y="210" as="sourcePoint" />
            <mxPoint x="390" y="210" as="targetPoint" />
          </mxGeometry>
        </mxCell>
        <mxCell id="h8sqUMdlJHkXFkki7X1s-53" value="" style="endArrow=none;html=1;rounded=0;entryX=0.5;entryY=0;entryDx=0;entryDy=0;exitX=0.75;exitY=1;exitDx=0;exitDy=0;" parent="1" source="h8sqUMdlJHkXFkki7X1s-4" target="h8sqUMdlJHkXFkki7X1s-19" edge="1">
          <mxGeometry relative="1" as="geometry">
            <mxPoint x="640" y="270" as="sourcePoint" />
            <mxPoint x="700" y="270" as="targetPoint" />
          </mxGeometry>
        </mxCell>
        <mxCell id="h8sqUMdlJHkXFkki7X1s-56" value="&lt;span id=&quot;docs-internal-guid-2c502949-7fff-00c7-db9c-5ba7696e4cfc&quot;&gt;&lt;span style=&quot;font-size: 11pt; font-family: Arial, sans-serif; background-color: transparent; font-variant-numeric: normal; font-variant-east-asian: normal; font-variant-alternates: normal; font-variant-position: normal; vertical-align: baseline; white-space-collapse: preserve;&quot;&gt;date of treatment&lt;/span&gt;&lt;/span&gt;" style="ellipse;whiteSpace=wrap;html=1;align=center;" parent="1" vertex="1">
          <mxGeometry x="50" y="420" width="100" height="40" as="geometry" />
        </mxCell>
        <mxCell id="h8sqUMdlJHkXFkki7X1s-57" value="&lt;span id=&quot;docs-internal-guid-2c502949-7fff-00c7-db9c-5ba7696e4cfc&quot;&gt;&lt;span style=&quot;font-size: 11pt; font-family: Arial, sans-serif; background-color: transparent; font-variant-numeric: normal; font-variant-east-asian: normal; font-variant-alternates: normal; font-variant-position: normal; vertical-align: baseline; white-space-collapse: preserve;&quot;&gt;duration of treatment&lt;/span&gt;&lt;/span&gt;" style="ellipse;whiteSpace=wrap;html=1;align=center;" parent="1" vertex="1">
          <mxGeometry x="170" y="420" width="100" height="40" as="geometry" />
        </mxCell>
        <mxCell id="h8sqUMdlJHkXFkki7X1s-58" value="&lt;span id=&quot;docs-internal-guid-2c502949-7fff-00c7-db9c-5ba7696e4cfc&quot;&gt;&lt;span style=&quot;font-size: 11pt; font-family: Arial, sans-serif; background-color: transparent; font-variant-numeric: normal; font-variant-east-asian: normal; font-variant-alternates: normal; font-variant-position: normal; vertical-align: baseline; white-space-collapse: preserve;&quot;&gt;results&lt;/span&gt;&lt;/span&gt;" style="ellipse;whiteSpace=wrap;html=1;align=center;" parent="1" vertex="1">
          <mxGeometry x="290" y="420" width="100" height="40" as="geometry" />
        </mxCell>
        <mxCell id="h8sqUMdlJHkXFkki7X1s-59" style="edgeStyle=orthogonalEdgeStyle;rounded=0;orthogonalLoop=1;jettySize=auto;html=1;exitX=0.5;exitY=1;exitDx=0;exitDy=0;" parent="1" source="h8sqUMdlJHkXFkki7X1s-56" target="h8sqUMdlJHkXFkki7X1s-56" edge="1">
          <mxGeometry relative="1" as="geometry" />
        </mxCell>
        <mxCell id="h8sqUMdlJHkXFkki7X1s-61" value="" style="endArrow=none;html=1;rounded=0;exitX=0.25;exitY=1;exitDx=0;exitDy=0;entryX=0.5;entryY=0;entryDx=0;entryDy=0;" parent="1" source="h8sqUMdlJHkXFkki7X1s-7" target="h8sqUMdlJHkXFkki7X1s-56" edge="1">
          <mxGeometry relative="1" as="geometry">
            <mxPoint x="160" y="460" as="sourcePoint" />
            <mxPoint x="110" y="500" as="targetPoint" />
          </mxGeometry>
        </mxCell>
        <mxCell id="h8sqUMdlJHkXFkki7X1s-62" value="" style="endArrow=none;html=1;rounded=0;entryX=0.5;entryY=0;entryDx=0;entryDy=0;exitX=0.5;exitY=1;exitDx=0;exitDy=0;" parent="1" source="h8sqUMdlJHkXFkki7X1s-7" target="h8sqUMdlJHkXFkki7X1s-57" edge="1">
          <mxGeometry relative="1" as="geometry">
            <mxPoint x="220" y="480" as="sourcePoint" />
            <mxPoint x="180" y="500" as="targetPoint" />
          </mxGeometry>
        </mxCell>
        <mxCell id="h8sqUMdlJHkXFkki7X1s-63" value="" style="endArrow=none;html=1;rounded=0;exitX=0.5;exitY=0;exitDx=0;exitDy=0;entryX=0.75;entryY=1;entryDx=0;entryDy=0;" parent="1" source="h8sqUMdlJHkXFkki7X1s-58" target="h8sqUMdlJHkXFkki7X1s-7" edge="1">
          <mxGeometry relative="1" as="geometry">
            <mxPoint x="290" y="470" as="sourcePoint" />
            <mxPoint x="240" y="510" as="targetPoint" />
          </mxGeometry>
        </mxCell>
        <mxCell id="h8sqUMdlJHkXFkki7X1s-72" value="" style="fontSize=12;html=1;endArrow=ERmany;rounded=0;exitX=0;exitY=0.5;exitDx=0;exitDy=0;entryX=1;entryY=0.5;entryDx=0;entryDy=0;" parent="1" source="h8sqUMdlJHkXFkki7X1s-43" target="h8sqUMdlJHkXFkki7X1s-7" edge="1">
          <mxGeometry width="100" height="100" relative="1" as="geometry">
            <mxPoint x="290" y="370" as="sourcePoint" />
            <mxPoint x="405" y="290" as="targetPoint" />
          </mxGeometry>
        </mxCell>
        <mxCell id="h8sqUMdlJHkXFkki7X1s-73" value="University" style="whiteSpace=wrap;html=1;align=center;" parent="1" vertex="1">
          <mxGeometry x="80" y="800" width="100" height="40" as="geometry" />
        </mxCell>
        <mxCell id="h8sqUMdlJHkXFkki7X1s-74" value="Class" style="whiteSpace=wrap;html=1;align=center;" parent="1" vertex="1">
          <mxGeometry x="700" y="800" width="100" height="40" as="geometry" />
        </mxCell>
        <mxCell id="h8sqUMdlJHkXFkki7X1s-75" value="Student" style="whiteSpace=wrap;html=1;align=center;" parent="1" vertex="1">
          <mxGeometry x="700" y="990" width="100" height="40" as="geometry" />
        </mxCell>
        <mxCell id="h8sqUMdlJHkXFkki7X1s-76" value="Falcuty" style="whiteSpace=wrap;html=1;align=center;" parent="1" vertex="1">
          <mxGeometry x="390" y="800" width="100" height="40" as="geometry" />
        </mxCell>
        <mxCell id="h8sqUMdlJHkXFkki7X1s-77" value="Subject" style="whiteSpace=wrap;html=1;align=center;" parent="1" vertex="1">
          <mxGeometry x="380" y="940" width="100" height="40" as="geometry" />
        </mxCell>
        <mxCell id="h8sqUMdlJHkXFkki7X1s-80" value="Library Card" style="shape=ext;margin=3;double=1;whiteSpace=wrap;html=1;align=center;" parent="1" vertex="1">
          <mxGeometry x="380" y="1100" width="100" height="40" as="geometry" />
        </mxCell>
        <mxCell id="h8sqUMdlJHkXFkki7X1s-81" value="Has" style="shape=rhombus;perimeter=rhombusPerimeter;whiteSpace=wrap;html=1;align=center;" parent="1" vertex="1">
          <mxGeometry x="220" y="790" width="120" height="60" as="geometry" />
        </mxCell>
        <mxCell id="h8sqUMdlJHkXFkki7X1s-82" value="" style="endArrow=none;html=1;rounded=0;entryX=0;entryY=0.5;entryDx=0;entryDy=0;exitX=1;exitY=0.5;exitDx=0;exitDy=0;" parent="1" source="h8sqUMdlJHkXFkki7X1s-73" target="h8sqUMdlJHkXFkki7X1s-81" edge="1">
          <mxGeometry relative="1" as="geometry">
            <mxPoint x="180" y="820" as="sourcePoint" />
            <mxPoint x="340" y="820" as="targetPoint" />
          </mxGeometry>
        </mxCell>
        <mxCell id="h8sqUMdlJHkXFkki7X1s-83" value="" style="edgeStyle=entityRelationEdgeStyle;fontSize=12;html=1;endArrow=ERoneToMany;rounded=0;entryX=0;entryY=0.5;entryDx=0;entryDy=0;exitX=1;exitY=0.5;exitDx=0;exitDy=0;" parent="1" source="h8sqUMdlJHkXFkki7X1s-81" target="h8sqUMdlJHkXFkki7X1s-76" edge="1">
          <mxGeometry width="100" height="100" relative="1" as="geometry">
            <mxPoint x="350" y="820" as="sourcePoint" />
            <mxPoint x="360" y="820" as="targetPoint" />
          </mxGeometry>
        </mxCell>
        <mxCell id="h8sqUMdlJHkXFkki7X1s-84" value="Falcuty Code" style="ellipse;whiteSpace=wrap;html=1;align=center;fontStyle=4;" parent="1" vertex="1">
          <mxGeometry x="325" y="710" width="100" height="40" as="geometry" />
        </mxCell>
        <mxCell id="h8sqUMdlJHkXFkki7X1s-86" value="" style="endArrow=none;html=1;rounded=0;exitX=0.5;exitY=0;exitDx=0;exitDy=0;entryX=0.5;entryY=1;entryDx=0;entryDy=0;" parent="1" source="h8sqUMdlJHkXFkki7X1s-76" target="h8sqUMdlJHkXFkki7X1s-84" edge="1">
          <mxGeometry relative="1" as="geometry">
            <mxPoint x="420" y="760" as="sourcePoint" />
            <mxPoint x="580" y="760" as="targetPoint" />
          </mxGeometry>
        </mxCell>
        <mxCell id="h8sqUMdlJHkXFkki7X1s-87" value="Falcuty name" style="ellipse;whiteSpace=wrap;html=1;align=center;" parent="1" vertex="1">
          <mxGeometry x="450" y="710" width="100" height="40" as="geometry" />
        </mxCell>
        <mxCell id="h8sqUMdlJHkXFkki7X1s-88" value="" style="endArrow=none;html=1;rounded=0;exitX=0.5;exitY=0;exitDx=0;exitDy=0;entryX=0.5;entryY=1;entryDx=0;entryDy=0;" parent="1" source="h8sqUMdlJHkXFkki7X1s-76" target="h8sqUMdlJHkXFkki7X1s-87" edge="1">
          <mxGeometry relative="1" as="geometry">
            <mxPoint x="440" y="790" as="sourcePoint" />
            <mxPoint x="600" y="790" as="targetPoint" />
          </mxGeometry>
        </mxCell>
        <mxCell id="h8sqUMdlJHkXFkki7X1s-89" value="Class code" style="ellipse;whiteSpace=wrap;html=1;align=center;fontStyle=4;" parent="1" vertex="1">
          <mxGeometry x="580" y="710" width="100" height="40" as="geometry" />
        </mxCell>
        <mxCell id="h8sqUMdlJHkXFkki7X1s-90" value="Class Name" style="ellipse;whiteSpace=wrap;html=1;align=center;" parent="1" vertex="1">
          <mxGeometry x="700" y="710" width="100" height="40" as="geometry" />
        </mxCell>
        <mxCell id="h8sqUMdlJHkXFkki7X1s-91" value="Wholesale number" style="ellipse;whiteSpace=wrap;html=1;align=center;" parent="1" vertex="1">
          <mxGeometry x="815" y="710" width="100" height="40" as="geometry" />
        </mxCell>
        <mxCell id="h8sqUMdlJHkXFkki7X1s-92" value="" style="endArrow=none;html=1;rounded=0;entryX=0.25;entryY=0;entryDx=0;entryDy=0;exitX=0.5;exitY=1;exitDx=0;exitDy=0;" parent="1" source="h8sqUMdlJHkXFkki7X1s-89" target="h8sqUMdlJHkXFkki7X1s-74" edge="1">
          <mxGeometry relative="1" as="geometry">
            <mxPoint x="645" y="870" as="sourcePoint" />
            <mxPoint x="805" y="870" as="targetPoint" />
          </mxGeometry>
        </mxCell>
        <mxCell id="h8sqUMdlJHkXFkki7X1s-93" value="" style="endArrow=none;html=1;rounded=0;entryX=0.5;entryY=1;entryDx=0;entryDy=0;exitX=0.75;exitY=0;exitDx=0;exitDy=0;" parent="1" source="h8sqUMdlJHkXFkki7X1s-74" target="h8sqUMdlJHkXFkki7X1s-91" edge="1">
          <mxGeometry relative="1" as="geometry">
            <mxPoint x="827.5" y="860" as="sourcePoint" />
            <mxPoint x="855" y="870.0000000000002" as="targetPoint" />
          </mxGeometry>
        </mxCell>
        <mxCell id="h8sqUMdlJHkXFkki7X1s-94" value="" style="endArrow=none;html=1;rounded=0;exitX=0.5;exitY=0;exitDx=0;exitDy=0;entryX=0.5;entryY=1;entryDx=0;entryDy=0;" parent="1" source="h8sqUMdlJHkXFkki7X1s-74" target="h8sqUMdlJHkXFkki7X1s-90" edge="1">
          <mxGeometry relative="1" as="geometry">
            <mxPoint x="685" y="940" as="sourcePoint" />
            <mxPoint x="845" y="940" as="targetPoint" />
          </mxGeometry>
        </mxCell>
        <mxCell id="h8sqUMdlJHkXFkki7X1s-95" value="Student ID" style="ellipse;whiteSpace=wrap;html=1;align=center;fontStyle=4;" parent="1" vertex="1">
          <mxGeometry x="850" y="960" width="100" height="40" as="geometry" />
        </mxCell>
        <mxCell id="h8sqUMdlJHkXFkki7X1s-101" value="Graduation point" style="ellipse;whiteSpace=wrap;html=1;align=center;" parent="1" vertex="1">
          <mxGeometry x="850" y="1030" width="100" height="40" as="geometry" />
        </mxCell>
        <mxCell id="h8sqUMdlJHkXFkki7X1s-102" value="" style="endArrow=none;html=1;rounded=0;entryX=0;entryY=0.5;entryDx=0;entryDy=0;exitX=1;exitY=0.25;exitDx=0;exitDy=0;" parent="1" source="h8sqUMdlJHkXFkki7X1s-75" target="h8sqUMdlJHkXFkki7X1s-95" edge="1">
          <mxGeometry relative="1" as="geometry">
            <mxPoint x="720" y="920" as="sourcePoint" />
            <mxPoint x="880" y="920" as="targetPoint" />
          </mxGeometry>
        </mxCell>
        <mxCell id="h8sqUMdlJHkXFkki7X1s-103" value="" style="endArrow=none;html=1;rounded=0;entryX=0;entryY=0.5;entryDx=0;entryDy=0;exitX=1;exitY=0.5;exitDx=0;exitDy=0;" parent="1" source="h8sqUMdlJHkXFkki7X1s-75" target="h8sqUMdlJHkXFkki7X1s-101" edge="1">
          <mxGeometry relative="1" as="geometry">
            <mxPoint x="710" y="930" as="sourcePoint" />
            <mxPoint x="870" y="930" as="targetPoint" />
          </mxGeometry>
        </mxCell>
        <mxCell id="h8sqUMdlJHkXFkki7X1s-104" value="Has" style="shape=rhombus;perimeter=rhombusPerimeter;whiteSpace=wrap;html=1;align=center;" parent="1" vertex="1">
          <mxGeometry x="520" y="790" width="120" height="60" as="geometry" />
        </mxCell>
        <mxCell id="h8sqUMdlJHkXFkki7X1s-105" value="" style="endArrow=none;html=1;rounded=0;entryX=0;entryY=0.5;entryDx=0;entryDy=0;exitX=1;exitY=0.5;exitDx=0;exitDy=0;" parent="1" source="h8sqUMdlJHkXFkki7X1s-76" target="h8sqUMdlJHkXFkki7X1s-104" edge="1">
          <mxGeometry relative="1" as="geometry">
            <mxPoint x="500" y="830" as="sourcePoint" />
            <mxPoint x="530" y="820" as="targetPoint" />
          </mxGeometry>
        </mxCell>
        <mxCell id="h8sqUMdlJHkXFkki7X1s-106" value="" style="edgeStyle=entityRelationEdgeStyle;fontSize=12;html=1;endArrow=ERoneToMany;rounded=0;entryX=0;entryY=0.5;entryDx=0;entryDy=0;exitX=1;exitY=0.5;exitDx=0;exitDy=0;" parent="1" source="h8sqUMdlJHkXFkki7X1s-104" target="h8sqUMdlJHkXFkki7X1s-74" edge="1">
          <mxGeometry width="100" height="100" relative="1" as="geometry">
            <mxPoint x="650" y="820" as="sourcePoint" />
            <mxPoint x="690" y="819.78" as="targetPoint" />
          </mxGeometry>
        </mxCell>
        <mxCell id="h8sqUMdlJHkXFkki7X1s-107" style="edgeStyle=orthogonalEdgeStyle;rounded=0;orthogonalLoop=1;jettySize=auto;html=1;exitX=0.5;exitY=1;exitDx=0;exitDy=0;" parent="1" source="h8sqUMdlJHkXFkki7X1s-101" target="h8sqUMdlJHkXFkki7X1s-101" edge="1">
          <mxGeometry relative="1" as="geometry" />
        </mxCell>
        <mxCell id="h8sqUMdlJHkXFkki7X1s-108" value="Placed in" style="shape=rhombus;perimeter=rhombusPerimeter;whiteSpace=wrap;html=1;align=center;" parent="1" vertex="1">
          <mxGeometry x="690" y="880" width="120" height="60" as="geometry" />
        </mxCell>
        <mxCell id="h8sqUMdlJHkXFkki7X1s-109" value="" style="endArrow=none;html=1;rounded=0;exitX=0.5;exitY=1;exitDx=0;exitDy=0;entryX=0.5;entryY=0;entryDx=0;entryDy=0;" parent="1" source="h8sqUMdlJHkXFkki7X1s-74" target="h8sqUMdlJHkXFkki7X1s-108" edge="1">
          <mxGeometry relative="1" as="geometry">
            <mxPoint x="740" y="850" as="sourcePoint" />
            <mxPoint x="900" y="850" as="targetPoint" />
          </mxGeometry>
        </mxCell>
        <mxCell id="h8sqUMdlJHkXFkki7X1s-110" value="" style="fontSize=12;html=1;endArrow=ERoneToMany;rounded=0;exitX=0.5;exitY=1;exitDx=0;exitDy=0;entryX=0.5;entryY=0;entryDx=0;entryDy=0;" parent="1" source="h8sqUMdlJHkXFkki7X1s-108" target="h8sqUMdlJHkXFkki7X1s-75" edge="1">
          <mxGeometry width="100" height="100" relative="1" as="geometry">
            <mxPoint x="780" y="990" as="sourcePoint" />
            <mxPoint x="880" y="890" as="targetPoint" />
          </mxGeometry>
        </mxCell>
        <mxCell id="h8sqUMdlJHkXFkki7X1s-111" value="Study" style="shape=rhombus;perimeter=rhombusPerimeter;whiteSpace=wrap;html=1;align=center;" parent="1" vertex="1">
          <mxGeometry x="520" y="930" width="120" height="60" as="geometry" />
        </mxCell>
        <mxCell id="h8sqUMdlJHkXFkki7X1s-112" value="" style="fontSize=12;html=1;endArrow=ERmany;rounded=0;exitX=1;exitY=0.5;exitDx=0;exitDy=0;entryX=0;entryY=0.5;entryDx=0;entryDy=0;" parent="1" source="h8sqUMdlJHkXFkki7X1s-111" target="h8sqUMdlJHkXFkki7X1s-75" edge="1">
          <mxGeometry width="100" height="100" relative="1" as="geometry">
            <mxPoint x="520" y="950" as="sourcePoint" />
            <mxPoint x="620" y="850" as="targetPoint" />
          </mxGeometry>
        </mxCell>
        <mxCell id="h8sqUMdlJHkXFkki7X1s-113" value="" style="fontSize=12;html=1;endArrow=ERmany;rounded=0;exitX=0;exitY=0.5;exitDx=0;exitDy=0;entryX=1;entryY=0.5;entryDx=0;entryDy=0;" parent="1" source="h8sqUMdlJHkXFkki7X1s-111" target="h8sqUMdlJHkXFkki7X1s-77" edge="1">
          <mxGeometry width="100" height="100" relative="1" as="geometry">
            <mxPoint x="510" y="980" as="sourcePoint" />
            <mxPoint x="610" y="880" as="targetPoint" />
          </mxGeometry>
        </mxCell>
        <mxCell id="B3dEMxSkP_ekOCOSfR8Q-2" value="" style="fontSize=12;html=1;endArrow=ERmandOne;rounded=0;entryX=0;entryY=0.75;entryDx=0;entryDy=0;exitX=1;exitY=0.5;exitDx=0;exitDy=0;" parent="1" target="h8sqUMdlJHkXFkki7X1s-75" edge="1">
          <mxGeometry width="100" height="100" relative="1" as="geometry">
            <mxPoint x="640" y="1120" as="sourcePoint" />
            <mxPoint x="750" y="1020" as="targetPoint" />
          </mxGeometry>
        </mxCell>
        <mxCell id="B3dEMxSkP_ekOCOSfR8Q-3" value="" style="fontSize=12;html=1;endArrow=ERmandOne;rounded=0;entryX=1;entryY=0.5;entryDx=0;entryDy=0;exitX=0;exitY=0.5;exitDx=0;exitDy=0;" parent="1" target="h8sqUMdlJHkXFkki7X1s-80" edge="1">
          <mxGeometry width="100" height="100" relative="1" as="geometry">
            <mxPoint x="520" y="1120" as="sourcePoint" />
            <mxPoint x="500" y="1140" as="targetPoint" />
          </mxGeometry>
        </mxCell>
        <mxCell id="B3dEMxSkP_ekOCOSfR8Q-4" value="Card number" style="ellipse;whiteSpace=wrap;html=1;align=center;fontStyle=4;" parent="1" vertex="1">
          <mxGeometry x="250" y="1100" width="100" height="40" as="geometry" />
        </mxCell>
        <mxCell id="B3dEMxSkP_ekOCOSfR8Q-7" value="" style="endArrow=none;html=1;rounded=0;exitX=1;exitY=0.5;exitDx=0;exitDy=0;entryX=0;entryY=0.5;entryDx=0;entryDy=0;" parent="1" source="B3dEMxSkP_ekOCOSfR8Q-4" target="h8sqUMdlJHkXFkki7X1s-80" edge="1">
          <mxGeometry relative="1" as="geometry">
            <mxPoint x="320" y="1040" as="sourcePoint" />
            <mxPoint x="480" y="1040" as="targetPoint" />
          </mxGeometry>
        </mxCell>
        <mxCell id="B3dEMxSkP_ekOCOSfR8Q-8" value="Owned" style="shape=rhombus;double=1;perimeter=rhombusPerimeter;whiteSpace=wrap;html=1;align=center;" parent="1" vertex="1">
          <mxGeometry x="520" y="1090" width="120" height="60" as="geometry" />
        </mxCell>
        <mxCell id="B3dEMxSkP_ekOCOSfR8Q-9" value="Subject code" style="ellipse;whiteSpace=wrap;html=1;align=center;fontStyle=4;" parent="1" vertex="1">
          <mxGeometry x="240" y="910" width="100" height="40" as="geometry" />
        </mxCell>
        <mxCell id="B3dEMxSkP_ekOCOSfR8Q-10" style="edgeStyle=orthogonalEdgeStyle;rounded=0;orthogonalLoop=1;jettySize=auto;html=1;exitX=0.5;exitY=1;exitDx=0;exitDy=0;" parent="1" source="B3dEMxSkP_ekOCOSfR8Q-9" target="B3dEMxSkP_ekOCOSfR8Q-9" edge="1">
          <mxGeometry relative="1" as="geometry" />
        </mxCell>
        <mxCell id="B3dEMxSkP_ekOCOSfR8Q-11" value="" style="endArrow=none;html=1;rounded=0;exitX=1;exitY=0.5;exitDx=0;exitDy=0;entryX=0;entryY=0.5;entryDx=0;entryDy=0;" parent="1" source="B3dEMxSkP_ekOCOSfR8Q-9" target="h8sqUMdlJHkXFkki7X1s-77" edge="1">
          <mxGeometry relative="1" as="geometry">
            <mxPoint x="350" y="960" as="sourcePoint" />
            <mxPoint x="370" y="960" as="targetPoint" />
          </mxGeometry>
        </mxCell>
        <mxCell id="B3dEMxSkP_ekOCOSfR8Q-12" value="Exam score" style="ellipse;whiteSpace=wrap;html=1;align=center;" parent="1" vertex="1">
          <mxGeometry x="240" y="970" width="100" height="40" as="geometry" />
        </mxCell>
        <mxCell id="B3dEMxSkP_ekOCOSfR8Q-13" value="" style="endArrow=none;html=1;rounded=0;entryX=0;entryY=0.75;entryDx=0;entryDy=0;" parent="1" target="h8sqUMdlJHkXFkki7X1s-77" edge="1">
          <mxGeometry relative="1" as="geometry">
            <mxPoint x="340" y="990" as="sourcePoint" />
            <mxPoint x="500" y="990" as="targetPoint" />
          </mxGeometry>
        </mxCell>
        <mxCell id="B3dEMxSkP_ekOCOSfR8Q-14" value="Hotel" style="whiteSpace=wrap;html=1;align=center;" parent="1" vertex="1">
          <mxGeometry x="180" y="1530" width="100" height="40" as="geometry" />
        </mxCell>
        <mxCell id="B3dEMxSkP_ekOCOSfR8Q-15" value="Has" style="shape=rhombus;perimeter=rhombusPerimeter;whiteSpace=wrap;html=1;align=center;" parent="1" vertex="1">
          <mxGeometry x="300" y="1520" width="120" height="60" as="geometry" />
        </mxCell>
        <mxCell id="B3dEMxSkP_ekOCOSfR8Q-16" value="Floor code" style="ellipse;whiteSpace=wrap;html=1;align=center;fontStyle=4;" parent="1" vertex="1">
          <mxGeometry x="460" y="1630" width="100" height="40" as="geometry" />
        </mxCell>
        <mxCell id="B3dEMxSkP_ekOCOSfR8Q-18" value="Room" style="whiteSpace=wrap;html=1;align=center;" parent="1" vertex="1">
          <mxGeometry x="770" y="1530" width="100" height="40" as="geometry" />
        </mxCell>
        <mxCell id="B3dEMxSkP_ekOCOSfR8Q-19" value="Guest" style="whiteSpace=wrap;html=1;align=center;" parent="1" vertex="1">
          <mxGeometry x="770" y="1700" width="100" height="40" as="geometry" />
        </mxCell>
        <mxCell id="B3dEMxSkP_ekOCOSfR8Q-20" value="Service" style="whiteSpace=wrap;html=1;align=center;" parent="1" vertex="1">
          <mxGeometry x="770" y="1350" width="100" height="40" as="geometry" />
        </mxCell>
        <mxCell id="B3dEMxSkP_ekOCOSfR8Q-21" value="Invoice" style="whiteSpace=wrap;html=1;align=center;" parent="1" vertex="1">
          <mxGeometry x="1070" y="1530" width="100" height="40" as="geometry" />
        </mxCell>
        <mxCell id="B3dEMxSkP_ekOCOSfR8Q-22" value="Floor" style="whiteSpace=wrap;html=1;align=center;" parent="1" vertex="1">
          <mxGeometry x="460" y="1530" width="100" height="40" as="geometry" />
        </mxCell>
        <mxCell id="B3dEMxSkP_ekOCOSfR8Q-23" value="Has" style="shape=rhombus;perimeter=rhombusPerimeter;whiteSpace=wrap;html=1;align=center;" parent="1" vertex="1">
          <mxGeometry x="610" y="1520" width="120" height="60" as="geometry" />
        </mxCell>
        <mxCell id="B3dEMxSkP_ekOCOSfR8Q-24" value="Stay" style="shape=rhombus;perimeter=rhombusPerimeter;whiteSpace=wrap;html=1;align=center;" parent="1" vertex="1">
          <mxGeometry x="760" y="1610" width="120" height="60" as="geometry" />
        </mxCell>
        <mxCell id="B3dEMxSkP_ekOCOSfR8Q-25" value="Attached" style="shape=rhombus;perimeter=rhombusPerimeter;whiteSpace=wrap;html=1;align=center;" parent="1" vertex="1">
          <mxGeometry x="760" y="1430" width="120" height="60" as="geometry" />
        </mxCell>
        <mxCell id="B3dEMxSkP_ekOCOSfR8Q-26" value="Pay" style="shape=rhombus;perimeter=rhombusPerimeter;whiteSpace=wrap;html=1;align=center;" parent="1" vertex="1">
          <mxGeometry x="1060" y="1690" width="120" height="60" as="geometry" />
        </mxCell>
        <mxCell id="B3dEMxSkP_ekOCOSfR8Q-27" value="Include" style="shape=rhombus;perimeter=rhombusPerimeter;whiteSpace=wrap;html=1;align=center;" parent="1" vertex="1">
          <mxGeometry x="910" y="1520" width="120" height="60" as="geometry" />
        </mxCell>
        <mxCell id="B3dEMxSkP_ekOCOSfR8Q-28" value="Store" style="shape=rhombus;perimeter=rhombusPerimeter;whiteSpace=wrap;html=1;align=center;" parent="1" vertex="1">
          <mxGeometry x="1060" y="1340" width="120" height="60" as="geometry" />
        </mxCell>
        <mxCell id="B3dEMxSkP_ekOCOSfR8Q-29" value="" style="endArrow=none;html=1;rounded=0;entryX=0;entryY=0.5;entryDx=0;entryDy=0;exitX=1;exitY=0.5;exitDx=0;exitDy=0;" parent="1" edge="1" target="B3dEMxSkP_ekOCOSfR8Q-15" source="B3dEMxSkP_ekOCOSfR8Q-14">
          <mxGeometry relative="1" as="geometry">
            <mxPoint x="300" y="1550" as="sourcePoint" />
            <mxPoint x="410" y="1550" as="targetPoint" />
          </mxGeometry>
        </mxCell>
        <mxCell id="1SNCTcxz0En8nOTg2Wit-2" value="" style="edgeStyle=entityRelationEdgeStyle;fontSize=12;html=1;endArrow=ERoneToMany;rounded=0;startSize=8;endSize=8;curved=1;entryX=0;entryY=0.5;entryDx=0;entryDy=0;" edge="1" parent="1" source="B3dEMxSkP_ekOCOSfR8Q-15" target="B3dEMxSkP_ekOCOSfR8Q-22">
          <mxGeometry width="100" height="100" relative="1" as="geometry">
            <mxPoint x="430" y="1620" as="sourcePoint" />
            <mxPoint x="530" y="1520" as="targetPoint" />
          </mxGeometry>
        </mxCell>
        <mxCell id="1SNCTcxz0En8nOTg2Wit-3" value="" style="endArrow=none;html=1;rounded=0;entryX=0;entryY=0.5;entryDx=0;entryDy=0;exitX=1;exitY=0.5;exitDx=0;exitDy=0;" edge="1" parent="1" source="B3dEMxSkP_ekOCOSfR8Q-22" target="B3dEMxSkP_ekOCOSfR8Q-23">
          <mxGeometry relative="1" as="geometry">
            <mxPoint x="580" y="1549.8" as="sourcePoint" />
            <mxPoint x="600" y="1549.8" as="targetPoint" />
          </mxGeometry>
        </mxCell>
        <mxCell id="1SNCTcxz0En8nOTg2Wit-4" value="Room code" style="ellipse;whiteSpace=wrap;html=1;align=center;fontStyle=4;" vertex="1" parent="1">
          <mxGeometry x="620" y="1630" width="100" height="40" as="geometry" />
        </mxCell>
        <mxCell id="1SNCTcxz0En8nOTg2Wit-5" value="Identity card number" style="ellipse;whiteSpace=wrap;html=1;align=center;fontStyle=4;" vertex="1" parent="1">
          <mxGeometry x="770" y="1780" width="100" height="40" as="geometry" />
        </mxCell>
        <mxCell id="1SNCTcxz0En8nOTg2Wit-6" value="Service code" style="ellipse;whiteSpace=wrap;html=1;align=center;fontStyle=4;" vertex="1" parent="1">
          <mxGeometry x="770" y="1280" width="100" height="40" as="geometry" />
        </mxCell>
        <mxCell id="1SNCTcxz0En8nOTg2Wit-9" value="Invoice code" style="ellipse;whiteSpace=wrap;html=1;align=center;fontStyle=4;" vertex="1" parent="1">
          <mxGeometry x="1200" y="1530" width="100" height="40" as="geometry" />
        </mxCell>
        <mxCell id="1SNCTcxz0En8nOTg2Wit-10" value="" style="endArrow=none;html=1;rounded=0;fontSize=12;startSize=8;endSize=8;curved=1;exitX=0.5;exitY=1;exitDx=0;exitDy=0;entryX=0.5;entryY=0;entryDx=0;entryDy=0;" edge="1" parent="1" source="B3dEMxSkP_ekOCOSfR8Q-22" target="B3dEMxSkP_ekOCOSfR8Q-16">
          <mxGeometry relative="1" as="geometry">
            <mxPoint x="500" y="1590" as="sourcePoint" />
            <mxPoint x="660" y="1590" as="targetPoint" />
          </mxGeometry>
        </mxCell>
        <mxCell id="1SNCTcxz0En8nOTg2Wit-11" value="" style="endArrow=none;html=1;rounded=0;fontSize=12;startSize=8;endSize=8;curved=1;entryX=0;entryY=1;entryDx=0;entryDy=0;exitX=0.5;exitY=0;exitDx=0;exitDy=0;" edge="1" parent="1" source="1SNCTcxz0En8nOTg2Wit-4" target="B3dEMxSkP_ekOCOSfR8Q-18">
          <mxGeometry relative="1" as="geometry">
            <mxPoint x="720" y="1600" as="sourcePoint" />
            <mxPoint x="880" y="1600" as="targetPoint" />
          </mxGeometry>
        </mxCell>
        <mxCell id="1SNCTcxz0En8nOTg2Wit-13" value="" style="edgeStyle=entityRelationEdgeStyle;fontSize=12;html=1;endArrow=ERoneToMany;rounded=0;startSize=8;endSize=8;curved=1;exitX=1;exitY=0.5;exitDx=0;exitDy=0;entryX=0;entryY=0.5;entryDx=0;entryDy=0;" edge="1" parent="1" source="B3dEMxSkP_ekOCOSfR8Q-23" target="B3dEMxSkP_ekOCOSfR8Q-18">
          <mxGeometry width="100" height="100" relative="1" as="geometry">
            <mxPoint x="740" y="1560" as="sourcePoint" />
            <mxPoint x="840" y="1460" as="targetPoint" />
          </mxGeometry>
        </mxCell>
        <mxCell id="1SNCTcxz0En8nOTg2Wit-14" value="" style="fontSize=12;html=1;endArrow=ERoneToMany;rounded=0;startSize=8;endSize=8;exitX=0.5;exitY=0;exitDx=0;exitDy=0;entryX=0.5;entryY=1;entryDx=0;entryDy=0;" edge="1" parent="1" source="B3dEMxSkP_ekOCOSfR8Q-25" target="B3dEMxSkP_ekOCOSfR8Q-20">
          <mxGeometry width="100" height="100" relative="1" as="geometry">
            <mxPoint x="870" y="1530" as="sourcePoint" />
            <mxPoint x="970" y="1430" as="targetPoint" />
          </mxGeometry>
        </mxCell>
        <mxCell id="1SNCTcxz0En8nOTg2Wit-15" value="" style="fontSize=12;html=1;endArrow=ERoneToMany;rounded=0;startSize=8;endSize=8;exitX=0.5;exitY=1;exitDx=0;exitDy=0;entryX=0.5;entryY=0;entryDx=0;entryDy=0;" edge="1" parent="1" source="B3dEMxSkP_ekOCOSfR8Q-25" target="B3dEMxSkP_ekOCOSfR8Q-18">
          <mxGeometry width="100" height="100" relative="1" as="geometry">
            <mxPoint x="850" y="1560" as="sourcePoint" />
            <mxPoint x="950" y="1460" as="targetPoint" />
          </mxGeometry>
        </mxCell>
        <mxCell id="1SNCTcxz0En8nOTg2Wit-16" value="" style="endArrow=none;html=1;rounded=0;fontSize=12;startSize=8;endSize=8;curved=1;exitX=1;exitY=0.5;exitDx=0;exitDy=0;entryX=0;entryY=0.5;entryDx=0;entryDy=0;" edge="1" parent="1" source="B3dEMxSkP_ekOCOSfR8Q-18" target="B3dEMxSkP_ekOCOSfR8Q-27">
          <mxGeometry relative="1" as="geometry">
            <mxPoint x="930" y="1490" as="sourcePoint" />
            <mxPoint x="1090" y="1490" as="targetPoint" />
          </mxGeometry>
        </mxCell>
        <mxCell id="1SNCTcxz0En8nOTg2Wit-17" value="" style="edgeStyle=entityRelationEdgeStyle;fontSize=12;html=1;endArrow=ERoneToMany;rounded=0;startSize=8;endSize=8;curved=1;exitX=1;exitY=0.5;exitDx=0;exitDy=0;entryX=0;entryY=0.5;entryDx=0;entryDy=0;" edge="1" parent="1" source="B3dEMxSkP_ekOCOSfR8Q-27" target="B3dEMxSkP_ekOCOSfR8Q-21">
          <mxGeometry width="100" height="100" relative="1" as="geometry">
            <mxPoint x="1010" y="1610" as="sourcePoint" />
            <mxPoint x="1110" y="1510" as="targetPoint" />
          </mxGeometry>
        </mxCell>
        <mxCell id="1SNCTcxz0En8nOTg2Wit-18" value="" style="endArrow=none;html=1;rounded=0;fontSize=12;startSize=8;endSize=8;curved=1;exitX=0.5;exitY=1;exitDx=0;exitDy=0;entryX=0.5;entryY=0;entryDx=0;entryDy=0;" edge="1" parent="1" source="1SNCTcxz0En8nOTg2Wit-6" target="B3dEMxSkP_ekOCOSfR8Q-20">
          <mxGeometry relative="1" as="geometry">
            <mxPoint x="870" y="1330" as="sourcePoint" />
            <mxPoint x="1030" y="1330" as="targetPoint" />
          </mxGeometry>
        </mxCell>
        <mxCell id="1SNCTcxz0En8nOTg2Wit-19" value="" style="fontSize=12;html=1;endArrow=ERoneToMany;rounded=0;startSize=8;endSize=8;exitX=0.5;exitY=0;exitDx=0;exitDy=0;entryX=0.5;entryY=1;entryDx=0;entryDy=0;" edge="1" parent="1" source="B3dEMxSkP_ekOCOSfR8Q-24" target="B3dEMxSkP_ekOCOSfR8Q-18">
          <mxGeometry width="100" height="100" relative="1" as="geometry">
            <mxPoint x="910" y="1650" as="sourcePoint" />
            <mxPoint x="1010" y="1550" as="targetPoint" />
          </mxGeometry>
        </mxCell>
        <mxCell id="1SNCTcxz0En8nOTg2Wit-20" value="" style="fontSize=12;html=1;endArrow=ERoneToMany;rounded=0;startSize=8;endSize=8;exitX=0.5;exitY=1;exitDx=0;exitDy=0;entryX=0.5;entryY=0;entryDx=0;entryDy=0;" edge="1" parent="1" source="B3dEMxSkP_ekOCOSfR8Q-24" target="B3dEMxSkP_ekOCOSfR8Q-19">
          <mxGeometry width="100" height="100" relative="1" as="geometry">
            <mxPoint x="830" y="1700" as="sourcePoint" />
            <mxPoint x="930" y="1600" as="targetPoint" />
          </mxGeometry>
        </mxCell>
        <mxCell id="1SNCTcxz0En8nOTg2Wit-21" value="" style="endArrow=none;html=1;rounded=0;fontSize=12;startSize=8;endSize=8;curved=1;exitX=0.5;exitY=1;exitDx=0;exitDy=0;entryX=0.5;entryY=0;entryDx=0;entryDy=0;" edge="1" parent="1" source="B3dEMxSkP_ekOCOSfR8Q-19" target="1SNCTcxz0En8nOTg2Wit-5">
          <mxGeometry relative="1" as="geometry">
            <mxPoint x="840" y="1760" as="sourcePoint" />
            <mxPoint x="1000" y="1760" as="targetPoint" />
          </mxGeometry>
        </mxCell>
        <mxCell id="1SNCTcxz0En8nOTg2Wit-22" value="" style="endArrow=none;html=1;rounded=0;fontSize=12;startSize=8;endSize=8;curved=1;exitX=1;exitY=0.5;exitDx=0;exitDy=0;entryX=0;entryY=0.5;entryDx=0;entryDy=0;" edge="1" parent="1" source="B3dEMxSkP_ekOCOSfR8Q-21" target="1SNCTcxz0En8nOTg2Wit-9">
          <mxGeometry relative="1" as="geometry">
            <mxPoint x="1180" y="1550" as="sourcePoint" />
            <mxPoint x="1350" y="1550" as="targetPoint" />
          </mxGeometry>
        </mxCell>
        <mxCell id="1SNCTcxz0En8nOTg2Wit-23" value="" style="endArrow=none;html=1;rounded=0;fontSize=12;startSize=8;endSize=8;curved=1;exitX=0.5;exitY=0;exitDx=0;exitDy=0;entryX=0.5;entryY=1;entryDx=0;entryDy=0;" edge="1" parent="1" source="B3dEMxSkP_ekOCOSfR8Q-21" target="B3dEMxSkP_ekOCOSfR8Q-28">
          <mxGeometry relative="1" as="geometry">
            <mxPoint x="1090" y="1490" as="sourcePoint" />
            <mxPoint x="1250" y="1490" as="targetPoint" />
          </mxGeometry>
        </mxCell>
        <mxCell id="1SNCTcxz0En8nOTg2Wit-24" value="" style="fontSize=12;html=1;endArrow=ERoneToMany;rounded=0;startSize=8;endSize=8;exitX=0;exitY=0.5;exitDx=0;exitDy=0;entryX=1;entryY=0.5;entryDx=0;entryDy=0;" edge="1" parent="1" source="B3dEMxSkP_ekOCOSfR8Q-28" target="B3dEMxSkP_ekOCOSfR8Q-20">
          <mxGeometry width="100" height="100" relative="1" as="geometry">
            <mxPoint x="980" y="1450" as="sourcePoint" />
            <mxPoint x="1080" y="1350" as="targetPoint" />
          </mxGeometry>
        </mxCell>
        <mxCell id="1SNCTcxz0En8nOTg2Wit-25" value="" style="endArrow=none;html=1;rounded=0;fontSize=12;startSize=8;endSize=8;curved=1;exitX=1;exitY=0.5;exitDx=0;exitDy=0;entryX=0;entryY=0.5;entryDx=0;entryDy=0;" edge="1" parent="1" source="B3dEMxSkP_ekOCOSfR8Q-19" target="B3dEMxSkP_ekOCOSfR8Q-26">
          <mxGeometry relative="1" as="geometry">
            <mxPoint x="890" y="1720" as="sourcePoint" />
            <mxPoint x="1060" y="1720" as="targetPoint" />
          </mxGeometry>
        </mxCell>
        <mxCell id="1SNCTcxz0En8nOTg2Wit-26" style="edgeStyle=none;curved=1;rounded=0;orthogonalLoop=1;jettySize=auto;html=1;entryX=0;entryY=0.5;entryDx=0;entryDy=0;fontSize=12;startSize=8;endSize=8;" edge="1" parent="1" source="B3dEMxSkP_ekOCOSfR8Q-26" target="B3dEMxSkP_ekOCOSfR8Q-26">
          <mxGeometry relative="1" as="geometry" />
        </mxCell>
        <mxCell id="1SNCTcxz0En8nOTg2Wit-27" value="" style="fontSize=12;html=1;endArrow=ERoneToMany;rounded=0;startSize=8;endSize=8;exitX=0.5;exitY=0;exitDx=0;exitDy=0;entryX=0.5;entryY=1;entryDx=0;entryDy=0;" edge="1" parent="1" source="B3dEMxSkP_ekOCOSfR8Q-26" target="B3dEMxSkP_ekOCOSfR8Q-21">
          <mxGeometry width="100" height="100" relative="1" as="geometry">
            <mxPoint x="1070" y="1680" as="sourcePoint" />
            <mxPoint x="1170" y="1580" as="targetPoint" />
          </mxGeometry>
        </mxCell>
      </root>
    </mxGraphModel>
  </diagram>
</mxfile>
